<mxfile host="app.diagrams.net" modified="2024-05-26T10:39:14.416Z" agent="Mozilla/5.0 (Windows NT 10.0; Win64; x64) AppleWebKit/537.36 (KHTML, like Gecko) Chrome/125.0.0.0 Safari/537.36" etag="RwSAHpAlqFIcJvXpRi7t" version="24.4.8" type="device">
  <diagram name="Page-1" id="2INNqCRTm7oYr5zG4Xsp">
    <mxGraphModel dx="1430" dy="781" grid="1" gridSize="10" guides="1" tooltips="1" connect="1" arrows="1" fold="1" page="1" pageScale="1" pageWidth="827" pageHeight="1169" math="0" shadow="0">
      <root>
        <mxCell id="0" />
        <mxCell id="1" parent="0" />
        <mxCell id="jPQeCpBVo-Wt4YYVI-Js-42" style="edgeStyle=none;rounded=0;orthogonalLoop=1;jettySize=auto;html=1;exitX=1;exitY=0.5;exitDx=0;exitDy=0;entryX=0;entryY=0.5;entryDx=0;entryDy=0;strokeColor=default;align=center;verticalAlign=middle;fontFamily=Helvetica;fontSize=11;fontColor=default;labelBackgroundColor=default;endArrow=none;endFill=0;" edge="1" parent="1" source="jPQeCpBVo-Wt4YYVI-Js-1" target="jPQeCpBVo-Wt4YYVI-Js-41">
          <mxGeometry relative="1" as="geometry" />
        </mxCell>
        <mxCell id="jPQeCpBVo-Wt4YYVI-Js-1" value="2:v&lt;br&gt;emf_bg_lc" style="rounded=0;whiteSpace=wrap;html=1;shape=ellipse;perimeter=ellipsePerimeter;" vertex="1" parent="1">
          <mxGeometry x="720" y="280" width="120" height="60" as="geometry" />
        </mxCell>
        <mxCell id="jPQeCpBVo-Wt4YYVI-Js-35" style="edgeStyle=none;rounded=0;orthogonalLoop=1;jettySize=auto;html=1;exitX=1;exitY=0.5;exitDx=0;exitDy=0;entryX=0;entryY=0.5;entryDx=0;entryDy=0;strokeColor=default;align=center;verticalAlign=middle;fontFamily=Helvetica;fontSize=11;fontColor=default;labelBackgroundColor=default;endArrow=none;endFill=0;" edge="1" parent="1" source="jPQeCpBVo-Wt4YYVI-Js-2" target="jPQeCpBVo-Wt4YYVI-Js-34">
          <mxGeometry relative="1" as="geometry" />
        </mxCell>
        <mxCell id="jPQeCpBVo-Wt4YYVI-Js-2" value="7:v&lt;br&gt;start_talk" style="rounded=0;whiteSpace=wrap;html=1;shape=ellipse;perimeter=ellipsePerimeter;" vertex="1" parent="1">
          <mxGeometry x="240" y="200" width="120" height="60" as="geometry" />
        </mxCell>
        <mxCell id="jPQeCpBVo-Wt4YYVI-Js-15" style="edgeStyle=none;rounded=0;orthogonalLoop=1;jettySize=auto;html=1;strokeColor=default;align=center;verticalAlign=middle;fontFamily=Helvetica;fontSize=11;fontColor=default;labelBackgroundColor=default;endArrow=none;endFill=0;entryX=0;entryY=0.5;entryDx=0;entryDy=0;exitX=1;exitY=0.5;exitDx=0;exitDy=0;" edge="1" parent="1" source="jPQeCpBVo-Wt4YYVI-Js-3" target="jPQeCpBVo-Wt4YYVI-Js-13">
          <mxGeometry relative="1" as="geometry" />
        </mxCell>
        <mxCell id="jPQeCpBVo-Wt4YYVI-Js-3" value="6:v&lt;br&gt;start_pres" style="rounded=0;whiteSpace=wrap;html=1;shape=ellipse;perimeter=ellipsePerimeter;" vertex="1" parent="1">
          <mxGeometry x="80" y="120" width="120" height="60" as="geometry" />
        </mxCell>
        <mxCell id="jPQeCpBVo-Wt4YYVI-Js-27" style="edgeStyle=none;rounded=0;orthogonalLoop=1;jettySize=auto;html=1;exitX=1;exitY=0.5;exitDx=0;exitDy=0;entryX=0;entryY=0.5;entryDx=0;entryDy=0;strokeColor=default;align=center;verticalAlign=middle;fontFamily=Helvetica;fontSize=11;fontColor=default;labelBackgroundColor=default;endArrow=none;endFill=0;" edge="1" parent="1" source="jPQeCpBVo-Wt4YYVI-Js-5" target="jPQeCpBVo-Wt4YYVI-Js-76">
          <mxGeometry relative="1" as="geometry" />
        </mxCell>
        <mxCell id="jPQeCpBVo-Wt4YYVI-Js-5" value="5:v&lt;br&gt;sponsor" style="rounded=0;whiteSpace=wrap;html=1;shape=ellipse;perimeter=ellipsePerimeter;" vertex="1" parent="1">
          <mxGeometry x="520" width="120" height="60" as="geometry" />
        </mxCell>
        <mxCell id="jPQeCpBVo-Wt4YYVI-Js-70" style="edgeStyle=none;rounded=0;orthogonalLoop=1;jettySize=auto;html=1;exitX=1;exitY=0.5;exitDx=0;exitDy=0;entryX=0;entryY=0.5;entryDx=0;entryDy=0;strokeColor=default;align=center;verticalAlign=middle;fontFamily=Helvetica;fontSize=11;fontColor=default;labelBackgroundColor=default;endArrow=none;endFill=0;" edge="1" parent="1" source="jPQeCpBVo-Wt4YYVI-Js-6" target="jPQeCpBVo-Wt4YYVI-Js-97">
          <mxGeometry relative="1" as="geometry" />
        </mxCell>
        <mxCell id="jPQeCpBVo-Wt4YYVI-Js-6" value="0:v&lt;br&gt;talk" style="rounded=0;whiteSpace=wrap;html=1;shape=ellipse;perimeter=ellipsePerimeter;" vertex="1" parent="1">
          <mxGeometry x="1700" y="220" width="120" height="60" as="geometry" />
        </mxCell>
        <mxCell id="jPQeCpBVo-Wt4YYVI-Js-31" style="edgeStyle=none;rounded=0;orthogonalLoop=1;jettySize=auto;html=1;exitX=1;exitY=0.5;exitDx=0;exitDy=0;entryX=0;entryY=0.5;entryDx=0;entryDy=0;strokeColor=default;align=center;verticalAlign=middle;fontFamily=Helvetica;fontSize=11;fontColor=default;labelBackgroundColor=default;endArrow=none;endFill=0;" edge="1" parent="1" source="jPQeCpBVo-Wt4YYVI-Js-13" target="jPQeCpBVo-Wt4YYVI-Js-30">
          <mxGeometry relative="1" as="geometry" />
        </mxCell>
        <mxCell id="jPQeCpBVo-Wt4YYVI-Js-13" value="overlay" style="rounded=0;whiteSpace=wrap;html=1;fontFamily=Helvetica;fontSize=11;fontColor=default;labelBackgroundColor=default;" vertex="1" parent="1">
          <mxGeometry x="240" y="80" width="120" height="60" as="geometry" />
        </mxCell>
        <mxCell id="jPQeCpBVo-Wt4YYVI-Js-29" style="edgeStyle=none;rounded=0;orthogonalLoop=1;jettySize=auto;html=1;exitX=1;exitY=0.5;exitDx=0;exitDy=0;entryX=0;entryY=0.5;entryDx=0;entryDy=0;strokeColor=default;align=center;verticalAlign=middle;fontFamily=Helvetica;fontSize=11;fontColor=default;labelBackgroundColor=default;endArrow=none;endFill=0;" edge="1" parent="1" source="jPQeCpBVo-Wt4YYVI-Js-28" target="jPQeCpBVo-Wt4YYVI-Js-13">
          <mxGeometry relative="1" as="geometry" />
        </mxCell>
        <mxCell id="jPQeCpBVo-Wt4YYVI-Js-28" value="&lt;div&gt;8:v&lt;/div&gt;transparent" style="rounded=0;whiteSpace=wrap;html=1;shape=ellipse;perimeter=ellipsePerimeter;" vertex="1" parent="1">
          <mxGeometry x="80" y="40" width="120" height="60" as="geometry" />
        </mxCell>
        <mxCell id="jPQeCpBVo-Wt4YYVI-Js-33" style="edgeStyle=none;rounded=0;orthogonalLoop=1;jettySize=auto;html=1;exitX=1;exitY=0.5;exitDx=0;exitDy=0;entryX=0;entryY=0.5;entryDx=0;entryDy=0;strokeColor=default;align=center;verticalAlign=middle;fontFamily=Helvetica;fontSize=11;fontColor=default;labelBackgroundColor=default;endArrow=none;endFill=0;" edge="1" parent="1" source="jPQeCpBVo-Wt4YYVI-Js-30" target="jPQeCpBVo-Wt4YYVI-Js-32">
          <mxGeometry relative="1" as="geometry" />
        </mxCell>
        <mxCell id="jPQeCpBVo-Wt4YYVI-Js-30" value="settb" style="rounded=0;whiteSpace=wrap;html=1;fontFamily=Helvetica;fontSize=11;fontColor=default;labelBackgroundColor=default;" vertex="1" parent="1">
          <mxGeometry x="400" y="80" width="120" height="60" as="geometry" />
        </mxCell>
        <mxCell id="jPQeCpBVo-Wt4YYVI-Js-38" style="edgeStyle=none;rounded=0;orthogonalLoop=1;jettySize=auto;html=1;exitX=1;exitY=0.5;exitDx=0;exitDy=0;entryX=0;entryY=0.5;entryDx=0;entryDy=0;strokeColor=default;align=center;verticalAlign=middle;fontFamily=Helvetica;fontSize=11;fontColor=default;labelBackgroundColor=default;endArrow=none;endFill=0;" edge="1" parent="1" source="jPQeCpBVo-Wt4YYVI-Js-32" target="jPQeCpBVo-Wt4YYVI-Js-37">
          <mxGeometry relative="1" as="geometry" />
        </mxCell>
        <mxCell id="jPQeCpBVo-Wt4YYVI-Js-32" value="v2" style="ellipse;whiteSpace=wrap;html=1;aspect=fixed;fontFamily=Helvetica;fontSize=11;fontColor=default;labelBackgroundColor=default;" vertex="1" parent="1">
          <mxGeometry x="560" y="120" width="60" height="60" as="geometry" />
        </mxCell>
        <mxCell id="jPQeCpBVo-Wt4YYVI-Js-36" style="edgeStyle=none;rounded=0;orthogonalLoop=1;jettySize=auto;html=1;exitX=1;exitY=0.5;exitDx=0;exitDy=0;entryX=0;entryY=0.5;entryDx=0;entryDy=0;strokeColor=default;align=center;verticalAlign=middle;fontFamily=Helvetica;fontSize=11;fontColor=default;labelBackgroundColor=default;endArrow=none;endFill=0;" edge="1" parent="1" source="jPQeCpBVo-Wt4YYVI-Js-34" target="jPQeCpBVo-Wt4YYVI-Js-32">
          <mxGeometry relative="1" as="geometry" />
        </mxCell>
        <mxCell id="jPQeCpBVo-Wt4YYVI-Js-34" value="overlay" style="rounded=0;whiteSpace=wrap;html=1;fontFamily=Helvetica;fontSize=11;fontColor=default;labelBackgroundColor=default;" vertex="1" parent="1">
          <mxGeometry x="400" y="200" width="120" height="60" as="geometry" />
        </mxCell>
        <mxCell id="jPQeCpBVo-Wt4YYVI-Js-40" style="edgeStyle=none;rounded=0;orthogonalLoop=1;jettySize=auto;html=1;exitX=1;exitY=0.5;exitDx=0;exitDy=0;entryX=0;entryY=0.5;entryDx=0;entryDy=0;strokeColor=default;align=center;verticalAlign=middle;fontFamily=Helvetica;fontSize=11;fontColor=default;labelBackgroundColor=default;endArrow=none;endFill=0;" edge="1" parent="1" source="jPQeCpBVo-Wt4YYVI-Js-37" target="jPQeCpBVo-Wt4YYVI-Js-39">
          <mxGeometry relative="1" as="geometry" />
        </mxCell>
        <mxCell id="jPQeCpBVo-Wt4YYVI-Js-37" value="settb" style="rounded=0;whiteSpace=wrap;html=1;fontFamily=Helvetica;fontSize=11;fontColor=default;labelBackgroundColor=default;" vertex="1" parent="1">
          <mxGeometry x="680" y="120" width="120" height="60" as="geometry" />
        </mxCell>
        <mxCell id="jPQeCpBVo-Wt4YYVI-Js-82" style="edgeStyle=none;rounded=0;orthogonalLoop=1;jettySize=auto;html=1;exitX=1;exitY=0.5;exitDx=0;exitDy=0;entryX=0;entryY=0.75;entryDx=0;entryDy=0;strokeColor=default;align=center;verticalAlign=middle;fontFamily=Helvetica;fontSize=11;fontColor=default;labelBackgroundColor=default;endArrow=none;endFill=0;" edge="1" parent="1" source="jPQeCpBVo-Wt4YYVI-Js-39" target="jPQeCpBVo-Wt4YYVI-Js-80">
          <mxGeometry relative="1" as="geometry" />
        </mxCell>
        <mxCell id="jPQeCpBVo-Wt4YYVI-Js-39" value="v3" style="ellipse;whiteSpace=wrap;html=1;aspect=fixed;fontFamily=Helvetica;fontSize=11;fontColor=default;labelBackgroundColor=default;" vertex="1" parent="1">
          <mxGeometry x="880" y="120" width="60" height="60" as="geometry" />
        </mxCell>
        <mxCell id="jPQeCpBVo-Wt4YYVI-Js-44" style="edgeStyle=none;rounded=0;orthogonalLoop=1;jettySize=auto;html=1;exitX=1;exitY=0.5;exitDx=0;exitDy=0;entryX=0;entryY=0.5;entryDx=0;entryDy=0;strokeColor=default;align=center;verticalAlign=middle;fontFamily=Helvetica;fontSize=11;fontColor=default;labelBackgroundColor=default;endArrow=none;endFill=0;" edge="1" parent="1" source="jPQeCpBVo-Wt4YYVI-Js-41" target="jPQeCpBVo-Wt4YYVI-Js-43">
          <mxGeometry relative="1" as="geometry" />
        </mxCell>
        <mxCell id="jPQeCpBVo-Wt4YYVI-Js-41" value="settb" style="rounded=0;whiteSpace=wrap;html=1;fontFamily=Helvetica;fontSize=11;fontColor=default;labelBackgroundColor=default;" vertex="1" parent="1">
          <mxGeometry x="880" y="280" width="120" height="60" as="geometry" />
        </mxCell>
        <mxCell id="jPQeCpBVo-Wt4YYVI-Js-47" style="edgeStyle=none;rounded=0;orthogonalLoop=1;jettySize=auto;html=1;exitX=1;exitY=0.5;exitDx=0;exitDy=0;entryX=0;entryY=0.5;entryDx=0;entryDy=0;strokeColor=default;align=center;verticalAlign=middle;fontFamily=Helvetica;fontSize=11;fontColor=default;labelBackgroundColor=default;endArrow=none;endFill=0;" edge="1" parent="1" source="jPQeCpBVo-Wt4YYVI-Js-43" target="jPQeCpBVo-Wt4YYVI-Js-45">
          <mxGeometry relative="1" as="geometry" />
        </mxCell>
        <mxCell id="jPQeCpBVo-Wt4YYVI-Js-48" style="edgeStyle=none;rounded=0;orthogonalLoop=1;jettySize=auto;html=1;exitX=1;exitY=0.5;exitDx=0;exitDy=0;entryX=0;entryY=0.5;entryDx=0;entryDy=0;strokeColor=default;align=center;verticalAlign=middle;fontFamily=Helvetica;fontSize=11;fontColor=default;labelBackgroundColor=default;endArrow=none;endFill=0;" edge="1" parent="1" source="jPQeCpBVo-Wt4YYVI-Js-43" target="jPQeCpBVo-Wt4YYVI-Js-46">
          <mxGeometry relative="1" as="geometry" />
        </mxCell>
        <mxCell id="jPQeCpBVo-Wt4YYVI-Js-43" value="split" style="rounded=0;whiteSpace=wrap;html=1;fontFamily=Helvetica;fontSize=11;fontColor=default;labelBackgroundColor=default;" vertex="1" parent="1">
          <mxGeometry x="1040" y="280" width="120" height="60" as="geometry" />
        </mxCell>
        <mxCell id="jPQeCpBVo-Wt4YYVI-Js-52" style="edgeStyle=none;rounded=0;orthogonalLoop=1;jettySize=auto;html=1;exitX=1;exitY=0.5;exitDx=0;exitDy=0;entryX=0;entryY=0.5;entryDx=0;entryDy=0;strokeColor=default;align=center;verticalAlign=middle;fontFamily=Helvetica;fontSize=11;fontColor=default;labelBackgroundColor=default;endArrow=none;endFill=0;" edge="1" parent="1" source="jPQeCpBVo-Wt4YYVI-Js-45" target="jPQeCpBVo-Wt4YYVI-Js-49">
          <mxGeometry relative="1" as="geometry" />
        </mxCell>
        <mxCell id="jPQeCpBVo-Wt4YYVI-Js-45" value="bg1" style="ellipse;whiteSpace=wrap;html=1;aspect=fixed;fontFamily=Helvetica;fontSize=11;fontColor=default;labelBackgroundColor=default;" vertex="1" parent="1">
          <mxGeometry x="1200" y="220" width="60" height="60" as="geometry" />
        </mxCell>
        <mxCell id="jPQeCpBVo-Wt4YYVI-Js-51" style="edgeStyle=none;rounded=0;orthogonalLoop=1;jettySize=auto;html=1;exitX=1;exitY=0.5;exitDx=0;exitDy=0;entryX=0;entryY=0.5;entryDx=0;entryDy=0;strokeColor=default;align=center;verticalAlign=middle;fontFamily=Helvetica;fontSize=11;fontColor=default;labelBackgroundColor=default;endArrow=none;endFill=0;" edge="1" parent="1" source="jPQeCpBVo-Wt4YYVI-Js-46" target="jPQeCpBVo-Wt4YYVI-Js-50">
          <mxGeometry relative="1" as="geometry" />
        </mxCell>
        <mxCell id="jPQeCpBVo-Wt4YYVI-Js-46" value="bg2" style="ellipse;whiteSpace=wrap;html=1;aspect=fixed;fontFamily=Helvetica;fontSize=11;fontColor=default;labelBackgroundColor=default;" vertex="1" parent="1">
          <mxGeometry x="1200" y="320" width="60" height="60" as="geometry" />
        </mxCell>
        <mxCell id="jPQeCpBVo-Wt4YYVI-Js-55" style="edgeStyle=none;rounded=0;orthogonalLoop=1;jettySize=auto;html=1;exitX=1;exitY=0.5;exitDx=0;exitDy=0;entryX=0;entryY=0.5;entryDx=0;entryDy=0;strokeColor=default;align=center;verticalAlign=middle;fontFamily=Helvetica;fontSize=11;fontColor=default;labelBackgroundColor=default;endArrow=none;endFill=0;" edge="1" parent="1" source="jPQeCpBVo-Wt4YYVI-Js-49" target="jPQeCpBVo-Wt4YYVI-Js-53">
          <mxGeometry relative="1" as="geometry" />
        </mxCell>
        <mxCell id="jPQeCpBVo-Wt4YYVI-Js-49" value="trim" style="rounded=0;whiteSpace=wrap;html=1;fontFamily=Helvetica;fontSize=11;fontColor=default;labelBackgroundColor=default;" vertex="1" parent="1">
          <mxGeometry x="1320" y="220" width="120" height="60" as="geometry" />
        </mxCell>
        <mxCell id="jPQeCpBVo-Wt4YYVI-Js-56" style="edgeStyle=none;rounded=0;orthogonalLoop=1;jettySize=auto;html=1;exitX=1;exitY=0.5;exitDx=0;exitDy=0;entryX=0;entryY=0.5;entryDx=0;entryDy=0;strokeColor=default;align=center;verticalAlign=middle;fontFamily=Helvetica;fontSize=11;fontColor=default;labelBackgroundColor=default;endArrow=none;endFill=0;" edge="1" parent="1" source="jPQeCpBVo-Wt4YYVI-Js-50" target="jPQeCpBVo-Wt4YYVI-Js-54">
          <mxGeometry relative="1" as="geometry" />
        </mxCell>
        <mxCell id="jPQeCpBVo-Wt4YYVI-Js-50" value="trim" style="rounded=0;whiteSpace=wrap;html=1;fontFamily=Helvetica;fontSize=11;fontColor=default;labelBackgroundColor=default;" vertex="1" parent="1">
          <mxGeometry x="1320" y="320" width="120" height="60" as="geometry" />
        </mxCell>
        <mxCell id="jPQeCpBVo-Wt4YYVI-Js-59" style="edgeStyle=none;rounded=0;orthogonalLoop=1;jettySize=auto;html=1;exitX=1;exitY=0.5;exitDx=0;exitDy=0;entryX=0;entryY=0.5;entryDx=0;entryDy=0;strokeColor=default;align=center;verticalAlign=middle;fontFamily=Helvetica;fontSize=11;fontColor=default;labelBackgroundColor=default;endArrow=none;endFill=0;" edge="1" parent="1" source="jPQeCpBVo-Wt4YYVI-Js-54" target="jPQeCpBVo-Wt4YYVI-Js-58">
          <mxGeometry relative="1" as="geometry" />
        </mxCell>
        <mxCell id="jPQeCpBVo-Wt4YYVI-Js-86" style="edgeStyle=none;rounded=0;orthogonalLoop=1;jettySize=auto;html=1;exitX=1;exitY=0.5;exitDx=0;exitDy=0;entryX=0;entryY=0.5;entryDx=0;entryDy=0;strokeColor=default;align=center;verticalAlign=middle;fontFamily=Helvetica;fontSize=11;fontColor=default;labelBackgroundColor=default;endArrow=none;endFill=0;" edge="1" parent="1" source="jPQeCpBVo-Wt4YYVI-Js-53" target="jPQeCpBVo-Wt4YYVI-Js-85">
          <mxGeometry relative="1" as="geometry" />
        </mxCell>
        <mxCell id="jPQeCpBVo-Wt4YYVI-Js-53" value="s1" style="ellipse;whiteSpace=wrap;html=1;aspect=fixed;fontFamily=Helvetica;fontSize=11;fontColor=default;labelBackgroundColor=default;" vertex="1" parent="1">
          <mxGeometry x="1480" y="200" width="60" height="60" as="geometry" />
        </mxCell>
        <mxCell id="jPQeCpBVo-Wt4YYVI-Js-54" value="e1" style="ellipse;whiteSpace=wrap;html=1;aspect=fixed;fontFamily=Helvetica;fontSize=11;fontColor=default;labelBackgroundColor=default;" vertex="1" parent="1">
          <mxGeometry x="1480" y="320" width="60" height="60" as="geometry" />
        </mxCell>
        <mxCell id="jPQeCpBVo-Wt4YYVI-Js-60" style="edgeStyle=none;rounded=0;orthogonalLoop=1;jettySize=auto;html=1;exitX=1;exitY=0.5;exitDx=0;exitDy=0;entryX=0;entryY=0.5;entryDx=0;entryDy=0;strokeColor=default;align=center;verticalAlign=middle;fontFamily=Helvetica;fontSize=11;fontColor=default;labelBackgroundColor=default;endArrow=none;endFill=0;" edge="1" parent="1" source="jPQeCpBVo-Wt4YYVI-Js-57" target="jPQeCpBVo-Wt4YYVI-Js-58">
          <mxGeometry relative="1" as="geometry" />
        </mxCell>
        <mxCell id="jPQeCpBVo-Wt4YYVI-Js-57" value="3:v&lt;br&gt;end_pres" style="rounded=0;whiteSpace=wrap;html=1;shape=ellipse;perimeter=ellipsePerimeter;" vertex="1" parent="1">
          <mxGeometry x="1480" y="440" width="120" height="60" as="geometry" />
        </mxCell>
        <mxCell id="jPQeCpBVo-Wt4YYVI-Js-62" style="edgeStyle=none;rounded=0;orthogonalLoop=1;jettySize=auto;html=1;exitX=1;exitY=0.5;exitDx=0;exitDy=0;entryX=0;entryY=0.5;entryDx=0;entryDy=0;strokeColor=default;align=center;verticalAlign=middle;fontFamily=Helvetica;fontSize=11;fontColor=default;labelBackgroundColor=default;endArrow=none;endFill=0;" edge="1" parent="1" source="jPQeCpBVo-Wt4YYVI-Js-58" target="jPQeCpBVo-Wt4YYVI-Js-61">
          <mxGeometry relative="1" as="geometry" />
        </mxCell>
        <mxCell id="jPQeCpBVo-Wt4YYVI-Js-58" value="overlay" style="rounded=0;whiteSpace=wrap;html=1;fontFamily=Helvetica;fontSize=11;fontColor=default;labelBackgroundColor=default;" vertex="1" parent="1">
          <mxGeometry x="1654" y="320" width="120" height="60" as="geometry" />
        </mxCell>
        <mxCell id="jPQeCpBVo-Wt4YYVI-Js-65" style="edgeStyle=none;rounded=0;orthogonalLoop=1;jettySize=auto;html=1;exitX=1;exitY=0.5;exitDx=0;exitDy=0;entryX=0;entryY=0.5;entryDx=0;entryDy=0;strokeColor=default;align=center;verticalAlign=middle;fontFamily=Helvetica;fontSize=11;fontColor=default;labelBackgroundColor=default;endArrow=none;endFill=0;" edge="1" parent="1" source="jPQeCpBVo-Wt4YYVI-Js-61" target="jPQeCpBVo-Wt4YYVI-Js-63">
          <mxGeometry relative="1" as="geometry" />
        </mxCell>
        <mxCell id="jPQeCpBVo-Wt4YYVI-Js-61" value="e2" style="ellipse;whiteSpace=wrap;html=1;aspect=fixed;fontFamily=Helvetica;fontSize=11;fontColor=default;labelBackgroundColor=default;" vertex="1" parent="1">
          <mxGeometry x="1840" y="320" width="60" height="60" as="geometry" />
        </mxCell>
        <mxCell id="jPQeCpBVo-Wt4YYVI-Js-68" style="edgeStyle=none;rounded=0;orthogonalLoop=1;jettySize=auto;html=1;exitX=1;exitY=0.5;exitDx=0;exitDy=0;entryX=0;entryY=0.5;entryDx=0;entryDy=0;strokeColor=default;align=center;verticalAlign=middle;fontFamily=Helvetica;fontSize=11;fontColor=default;labelBackgroundColor=default;endArrow=none;endFill=0;" edge="1" parent="1" source="jPQeCpBVo-Wt4YYVI-Js-63" target="jPQeCpBVo-Wt4YYVI-Js-67">
          <mxGeometry relative="1" as="geometry" />
        </mxCell>
        <mxCell id="jPQeCpBVo-Wt4YYVI-Js-63" value="overlay" style="rounded=0;whiteSpace=wrap;html=1;fontFamily=Helvetica;fontSize=11;fontColor=default;labelBackgroundColor=default;" vertex="1" parent="1">
          <mxGeometry x="1960" y="380" width="120" height="60" as="geometry" />
        </mxCell>
        <mxCell id="jPQeCpBVo-Wt4YYVI-Js-66" style="edgeStyle=none;rounded=0;orthogonalLoop=1;jettySize=auto;html=1;exitX=1;exitY=0.5;exitDx=0;exitDy=0;strokeColor=default;align=center;verticalAlign=middle;fontFamily=Helvetica;fontSize=11;fontColor=default;labelBackgroundColor=default;endArrow=none;endFill=0;entryX=0;entryY=0.5;entryDx=0;entryDy=0;" edge="1" parent="1" source="jPQeCpBVo-Wt4YYVI-Js-64" target="jPQeCpBVo-Wt4YYVI-Js-63">
          <mxGeometry relative="1" as="geometry">
            <mxPoint x="1960" y="350" as="targetPoint" />
          </mxGeometry>
        </mxCell>
        <mxCell id="jPQeCpBVo-Wt4YYVI-Js-64" value="4:v&lt;br&gt;end_talk" style="rounded=0;whiteSpace=wrap;html=1;shape=ellipse;perimeter=ellipsePerimeter;" vertex="1" parent="1">
          <mxGeometry x="1774" y="470" width="120" height="60" as="geometry" />
        </mxCell>
        <mxCell id="jPQeCpBVo-Wt4YYVI-Js-71" style="edgeStyle=none;rounded=0;orthogonalLoop=1;jettySize=auto;html=1;exitX=1;exitY=0.5;exitDx=0;exitDy=0;entryX=0;entryY=0.5;entryDx=0;entryDy=0;strokeColor=default;align=center;verticalAlign=middle;fontFamily=Helvetica;fontSize=11;fontColor=default;labelBackgroundColor=default;endArrow=none;endFill=0;" edge="1" parent="1" source="jPQeCpBVo-Wt4YYVI-Js-67" target="jPQeCpBVo-Wt4YYVI-Js-69">
          <mxGeometry relative="1" as="geometry" />
        </mxCell>
        <mxCell id="jPQeCpBVo-Wt4YYVI-Js-67" value="e3" style="ellipse;whiteSpace=wrap;html=1;aspect=fixed;fontFamily=Helvetica;fontSize=11;fontColor=default;labelBackgroundColor=default;" vertex="1" parent="1">
          <mxGeometry x="2160" y="380" width="60" height="60" as="geometry" />
        </mxCell>
        <mxCell id="jPQeCpBVo-Wt4YYVI-Js-73" style="edgeStyle=none;rounded=0;orthogonalLoop=1;jettySize=auto;html=1;exitX=1;exitY=0.5;exitDx=0;exitDy=0;entryX=0;entryY=0.5;entryDx=0;entryDy=0;strokeColor=default;align=center;verticalAlign=middle;fontFamily=Helvetica;fontSize=11;fontColor=default;labelBackgroundColor=default;endArrow=none;endFill=0;" edge="1" parent="1" source="jPQeCpBVo-Wt4YYVI-Js-69" target="jPQeCpBVo-Wt4YYVI-Js-72">
          <mxGeometry relative="1" as="geometry" />
        </mxCell>
        <mxCell id="jPQeCpBVo-Wt4YYVI-Js-69" value="xfade" style="rounded=0;whiteSpace=wrap;html=1;fontFamily=Helvetica;fontSize=11;fontColor=default;labelBackgroundColor=default;" vertex="1" parent="1">
          <mxGeometry x="2280" y="340" width="120" height="60" as="geometry" />
        </mxCell>
        <mxCell id="jPQeCpBVo-Wt4YYVI-Js-75" style="edgeStyle=none;rounded=0;orthogonalLoop=1;jettySize=auto;html=1;exitX=1;exitY=0.5;exitDx=0;exitDy=0;entryX=0;entryY=0.5;entryDx=0;entryDy=0;strokeColor=default;align=center;verticalAlign=middle;fontFamily=Helvetica;fontSize=11;fontColor=default;labelBackgroundColor=default;endArrow=none;endFill=0;" edge="1" parent="1" source="jPQeCpBVo-Wt4YYVI-Js-72" target="jPQeCpBVo-Wt4YYVI-Js-74">
          <mxGeometry relative="1" as="geometry" />
        </mxCell>
        <mxCell id="jPQeCpBVo-Wt4YYVI-Js-72" value="fade" style="rounded=0;whiteSpace=wrap;html=1;fontFamily=Helvetica;fontSize=11;fontColor=default;labelBackgroundColor=default;" vertex="1" parent="1">
          <mxGeometry x="2481" y="340" width="120" height="60" as="geometry" />
        </mxCell>
        <mxCell id="jPQeCpBVo-Wt4YYVI-Js-93" style="edgeStyle=none;rounded=0;orthogonalLoop=1;jettySize=auto;html=1;exitX=1;exitY=0.5;exitDx=0;exitDy=0;entryX=0;entryY=0.5;entryDx=0;entryDy=0;strokeColor=default;align=center;verticalAlign=middle;fontFamily=Helvetica;fontSize=11;fontColor=default;labelBackgroundColor=default;endArrow=none;endFill=0;" edge="1" parent="1" source="jPQeCpBVo-Wt4YYVI-Js-74" target="jPQeCpBVo-Wt4YYVI-Js-90">
          <mxGeometry relative="1" as="geometry" />
        </mxCell>
        <mxCell id="jPQeCpBVo-Wt4YYVI-Js-74" value="m1" style="ellipse;whiteSpace=wrap;html=1;aspect=fixed;fontFamily=Helvetica;fontSize=11;fontColor=default;labelBackgroundColor=default;" vertex="1" parent="1">
          <mxGeometry x="2640" y="340" width="60" height="60" as="geometry" />
        </mxCell>
        <mxCell id="jPQeCpBVo-Wt4YYVI-Js-78" style="edgeStyle=none;rounded=0;orthogonalLoop=1;jettySize=auto;html=1;exitX=1;exitY=0.5;exitDx=0;exitDy=0;entryX=0;entryY=0.5;entryDx=0;entryDy=0;strokeColor=default;align=center;verticalAlign=middle;fontFamily=Helvetica;fontSize=11;fontColor=default;labelBackgroundColor=default;endArrow=none;endFill=0;" edge="1" parent="1" source="jPQeCpBVo-Wt4YYVI-Js-76" target="jPQeCpBVo-Wt4YYVI-Js-77">
          <mxGeometry relative="1" as="geometry" />
        </mxCell>
        <mxCell id="jPQeCpBVo-Wt4YYVI-Js-76" value="settb" style="rounded=0;whiteSpace=wrap;html=1;fontFamily=Helvetica;fontSize=11;fontColor=default;labelBackgroundColor=default;" vertex="1" parent="1">
          <mxGeometry x="680" width="120" height="60" as="geometry" />
        </mxCell>
        <mxCell id="jPQeCpBVo-Wt4YYVI-Js-81" style="edgeStyle=none;rounded=0;orthogonalLoop=1;jettySize=auto;html=1;exitX=1;exitY=0.5;exitDx=0;exitDy=0;entryX=0;entryY=0.25;entryDx=0;entryDy=0;strokeColor=default;align=center;verticalAlign=middle;fontFamily=Helvetica;fontSize=11;fontColor=default;labelBackgroundColor=default;endArrow=none;endFill=0;" edge="1" parent="1" source="jPQeCpBVo-Wt4YYVI-Js-77" target="jPQeCpBVo-Wt4YYVI-Js-80">
          <mxGeometry relative="1" as="geometry" />
        </mxCell>
        <mxCell id="jPQeCpBVo-Wt4YYVI-Js-77" value="v5" style="ellipse;whiteSpace=wrap;html=1;aspect=fixed;fontFamily=Helvetica;fontSize=11;fontColor=default;labelBackgroundColor=default;" vertex="1" parent="1">
          <mxGeometry x="880" width="60" height="60" as="geometry" />
        </mxCell>
        <mxCell id="jPQeCpBVo-Wt4YYVI-Js-84" style="edgeStyle=none;rounded=0;orthogonalLoop=1;jettySize=auto;html=1;exitX=1;exitY=0.5;exitDx=0;exitDy=0;entryX=0;entryY=0.5;entryDx=0;entryDy=0;strokeColor=default;align=center;verticalAlign=middle;fontFamily=Helvetica;fontSize=11;fontColor=default;labelBackgroundColor=default;endArrow=none;endFill=0;" edge="1" parent="1" source="jPQeCpBVo-Wt4YYVI-Js-80" target="jPQeCpBVo-Wt4YYVI-Js-83">
          <mxGeometry relative="1" as="geometry" />
        </mxCell>
        <mxCell id="jPQeCpBVo-Wt4YYVI-Js-80" value="xfade" style="rounded=0;whiteSpace=wrap;html=1;fontFamily=Helvetica;fontSize=11;fontColor=default;labelBackgroundColor=default;" vertex="1" parent="1">
          <mxGeometry x="1040" y="40" width="120" height="60" as="geometry" />
        </mxCell>
        <mxCell id="jPQeCpBVo-Wt4YYVI-Js-87" style="edgeStyle=none;rounded=0;orthogonalLoop=1;jettySize=auto;html=1;exitX=1;exitY=0.5;exitDx=0;exitDy=0;entryX=0;entryY=0.5;entryDx=0;entryDy=0;strokeColor=default;align=center;verticalAlign=middle;fontFamily=Helvetica;fontSize=11;fontColor=default;labelBackgroundColor=default;endArrow=none;endFill=0;" edge="1" parent="1" source="jPQeCpBVo-Wt4YYVI-Js-83" target="jPQeCpBVo-Wt4YYVI-Js-85">
          <mxGeometry relative="1" as="geometry" />
        </mxCell>
        <mxCell id="jPQeCpBVo-Wt4YYVI-Js-83" value="s2" style="ellipse;whiteSpace=wrap;html=1;aspect=fixed;fontFamily=Helvetica;fontSize=11;fontColor=default;labelBackgroundColor=default;" vertex="1" parent="1">
          <mxGeometry x="1241" y="40" width="60" height="60" as="geometry" />
        </mxCell>
        <mxCell id="jPQeCpBVo-Wt4YYVI-Js-89" style="edgeStyle=none;rounded=0;orthogonalLoop=1;jettySize=auto;html=1;exitX=1;exitY=0.5;exitDx=0;exitDy=0;entryX=0;entryY=0.5;entryDx=0;entryDy=0;strokeColor=default;align=center;verticalAlign=middle;fontFamily=Helvetica;fontSize=11;fontColor=default;labelBackgroundColor=default;endArrow=none;endFill=0;" edge="1" parent="1" source="jPQeCpBVo-Wt4YYVI-Js-85" target="jPQeCpBVo-Wt4YYVI-Js-88">
          <mxGeometry relative="1" as="geometry" />
        </mxCell>
        <mxCell id="jPQeCpBVo-Wt4YYVI-Js-85" value="overlay" style="rounded=0;whiteSpace=wrap;html=1;fontFamily=Helvetica;fontSize=11;fontColor=default;labelBackgroundColor=default;" vertex="1" parent="1">
          <mxGeometry x="1560" y="120" width="120" height="60" as="geometry" />
        </mxCell>
        <mxCell id="jPQeCpBVo-Wt4YYVI-Js-92" style="edgeStyle=none;rounded=0;orthogonalLoop=1;jettySize=auto;html=1;exitX=1;exitY=0.5;exitDx=0;exitDy=0;entryX=0;entryY=0.5;entryDx=0;entryDy=0;strokeColor=default;align=center;verticalAlign=middle;fontFamily=Helvetica;fontSize=11;fontColor=default;labelBackgroundColor=default;endArrow=none;endFill=0;" edge="1" parent="1" source="jPQeCpBVo-Wt4YYVI-Js-88" target="jPQeCpBVo-Wt4YYVI-Js-90">
          <mxGeometry relative="1" as="geometry" />
        </mxCell>
        <mxCell id="jPQeCpBVo-Wt4YYVI-Js-88" value="s3" style="ellipse;whiteSpace=wrap;html=1;aspect=fixed;fontFamily=Helvetica;fontSize=11;fontColor=default;labelBackgroundColor=default;" vertex="1" parent="1">
          <mxGeometry x="1760" y="120" width="60" height="60" as="geometry" />
        </mxCell>
        <mxCell id="jPQeCpBVo-Wt4YYVI-Js-94" style="edgeStyle=none;rounded=0;orthogonalLoop=1;jettySize=auto;html=1;exitX=1;exitY=0.5;exitDx=0;exitDy=0;entryX=0;entryY=0.5;entryDx=0;entryDy=0;strokeColor=default;align=center;verticalAlign=middle;fontFamily=Helvetica;fontSize=11;fontColor=default;labelBackgroundColor=default;endArrow=none;endFill=0;" edge="1" parent="1" source="jPQeCpBVo-Wt4YYVI-Js-90" target="jPQeCpBVo-Wt4YYVI-Js-91">
          <mxGeometry relative="1" as="geometry" />
        </mxCell>
        <mxCell id="jPQeCpBVo-Wt4YYVI-Js-90" value="xfade" style="rounded=0;whiteSpace=wrap;html=1;fontFamily=Helvetica;fontSize=11;fontColor=default;labelBackgroundColor=default;" vertex="1" parent="1">
          <mxGeometry x="2760" y="240" width="120" height="60" as="geometry" />
        </mxCell>
        <mxCell id="jPQeCpBVo-Wt4YYVI-Js-96" style="edgeStyle=none;rounded=0;orthogonalLoop=1;jettySize=auto;html=1;exitX=1;exitY=0.5;exitDx=0;exitDy=0;entryX=0;entryY=0.5;entryDx=0;entryDy=0;strokeColor=default;align=center;verticalAlign=middle;fontFamily=Helvetica;fontSize=11;fontColor=default;labelBackgroundColor=default;endArrow=none;endFill=0;" edge="1" parent="1" source="jPQeCpBVo-Wt4YYVI-Js-91" target="jPQeCpBVo-Wt4YYVI-Js-95">
          <mxGeometry relative="1" as="geometry" />
        </mxCell>
        <mxCell id="jPQeCpBVo-Wt4YYVI-Js-91" value="fade" style="rounded=0;whiteSpace=wrap;html=1;fontFamily=Helvetica;fontSize=11;fontColor=default;labelBackgroundColor=default;" vertex="1" parent="1">
          <mxGeometry x="2921" y="240" width="120" height="60" as="geometry" />
        </mxCell>
        <mxCell id="jPQeCpBVo-Wt4YYVI-Js-95" value="p1" style="ellipse;whiteSpace=wrap;html=1;aspect=fixed;fontFamily=Helvetica;fontSize=11;fontColor=default;labelBackgroundColor=default;" vertex="1" parent="1">
          <mxGeometry x="3120" y="240" width="60" height="60" as="geometry" />
        </mxCell>
        <mxCell id="jPQeCpBVo-Wt4YYVI-Js-99" style="edgeStyle=none;rounded=0;orthogonalLoop=1;jettySize=auto;html=1;exitX=1;exitY=0.5;exitDx=0;exitDy=0;entryX=0;entryY=0.5;entryDx=0;entryDy=0;strokeColor=default;align=center;verticalAlign=middle;fontFamily=Helvetica;fontSize=11;fontColor=default;labelBackgroundColor=default;endArrow=none;endFill=0;" edge="1" parent="1" source="jPQeCpBVo-Wt4YYVI-Js-97" target="jPQeCpBVo-Wt4YYVI-Js-98">
          <mxGeometry relative="1" as="geometry" />
        </mxCell>
        <mxCell id="jPQeCpBVo-Wt4YYVI-Js-97" value="xfade" style="rounded=0;whiteSpace=wrap;html=1;fontFamily=Helvetica;fontSize=11;fontColor=default;labelBackgroundColor=default;" vertex="1" parent="1">
          <mxGeometry x="1947.5" y="230" width="120" height="60" as="geometry" />
        </mxCell>
        <mxCell id="jPQeCpBVo-Wt4YYVI-Js-100" style="edgeStyle=none;rounded=0;orthogonalLoop=1;jettySize=auto;html=1;exitX=1;exitY=0.5;exitDx=0;exitDy=0;entryX=0;entryY=0.5;entryDx=0;entryDy=0;strokeColor=default;align=center;verticalAlign=middle;fontFamily=Helvetica;fontSize=11;fontColor=default;labelBackgroundColor=default;endArrow=none;endFill=0;" edge="1" parent="1" source="jPQeCpBVo-Wt4YYVI-Js-98" target="jPQeCpBVo-Wt4YYVI-Js-69">
          <mxGeometry relative="1" as="geometry" />
        </mxCell>
        <mxCell id="jPQeCpBVo-Wt4YYVI-Js-98" value="m2" style="ellipse;whiteSpace=wrap;html=1;aspect=fixed;fontFamily=Helvetica;fontSize=11;fontColor=default;labelBackgroundColor=default;" vertex="1" parent="1">
          <mxGeometry x="2140" y="270" width="60" height="60" as="geometry" />
        </mxCell>
        <mxCell id="jPQeCpBVo-Wt4YYVI-Js-101" style="edgeStyle=none;rounded=0;orthogonalLoop=1;jettySize=auto;html=1;exitX=1;exitY=0.5;exitDx=0;exitDy=0;entryX=0;entryY=0.5;entryDx=0;entryDy=0;strokeColor=default;align=center;verticalAlign=middle;fontFamily=Helvetica;fontSize=11;fontColor=default;labelBackgroundColor=default;endArrow=none;endFill=0;" edge="1" parent="1" source="jPQeCpBVo-Wt4YYVI-Js-102" target="jPQeCpBVo-Wt4YYVI-Js-126">
          <mxGeometry relative="1" as="geometry" />
        </mxCell>
        <mxCell id="jPQeCpBVo-Wt4YYVI-Js-102" value="1:v&lt;br&gt;emf_bg_lc" style="rounded=0;whiteSpace=wrap;html=1;shape=ellipse;perimeter=ellipsePerimeter;" vertex="1" parent="1">
          <mxGeometry x="660" y="850" width="120" height="60" as="geometry" />
        </mxCell>
        <mxCell id="jPQeCpBVo-Wt4YYVI-Js-103" style="edgeStyle=none;rounded=0;orthogonalLoop=1;jettySize=auto;html=1;exitX=1;exitY=0.5;exitDx=0;exitDy=0;entryX=0;entryY=0.5;entryDx=0;entryDy=0;strokeColor=default;align=center;verticalAlign=middle;fontFamily=Helvetica;fontSize=11;fontColor=default;labelBackgroundColor=default;endArrow=none;endFill=0;" edge="1" parent="1" source="jPQeCpBVo-Wt4YYVI-Js-104" target="jPQeCpBVo-Wt4YYVI-Js-120">
          <mxGeometry relative="1" as="geometry" />
        </mxCell>
        <mxCell id="jPQeCpBVo-Wt4YYVI-Js-104" value="4:v&lt;br&gt;start_talk" style="rounded=0;whiteSpace=wrap;html=1;shape=ellipse;perimeter=ellipsePerimeter;" vertex="1" parent="1">
          <mxGeometry x="180" y="770" width="120" height="60" as="geometry" />
        </mxCell>
        <mxCell id="jPQeCpBVo-Wt4YYVI-Js-105" style="edgeStyle=none;rounded=0;orthogonalLoop=1;jettySize=auto;html=1;strokeColor=default;align=center;verticalAlign=middle;fontFamily=Helvetica;fontSize=11;fontColor=default;labelBackgroundColor=default;endArrow=none;endFill=0;entryX=0;entryY=0.5;entryDx=0;entryDy=0;exitX=1;exitY=0.5;exitDx=0;exitDy=0;" edge="1" parent="1" source="jPQeCpBVo-Wt4YYVI-Js-106" target="jPQeCpBVo-Wt4YYVI-Js-112">
          <mxGeometry relative="1" as="geometry" />
        </mxCell>
        <mxCell id="jPQeCpBVo-Wt4YYVI-Js-106" value="3:v&lt;br&gt;start_pres" style="rounded=0;whiteSpace=wrap;html=1;shape=ellipse;perimeter=ellipsePerimeter;" vertex="1" parent="1">
          <mxGeometry x="20" y="690" width="120" height="60" as="geometry" />
        </mxCell>
        <mxCell id="jPQeCpBVo-Wt4YYVI-Js-107" style="edgeStyle=none;rounded=0;orthogonalLoop=1;jettySize=auto;html=1;exitX=1;exitY=0.5;exitDx=0;exitDy=0;entryX=0;entryY=0.5;entryDx=0;entryDy=0;strokeColor=default;align=center;verticalAlign=middle;fontFamily=Helvetica;fontSize=11;fontColor=default;labelBackgroundColor=default;endArrow=none;endFill=0;" edge="1" parent="1" source="jPQeCpBVo-Wt4YYVI-Js-108" target="jPQeCpBVo-Wt4YYVI-Js-165">
          <mxGeometry relative="1" as="geometry">
            <mxPoint x="620" y="600" as="targetPoint" />
          </mxGeometry>
        </mxCell>
        <mxCell id="jPQeCpBVo-Wt4YYVI-Js-108" value="6:v&lt;br&gt;sponsor" style="rounded=0;whiteSpace=wrap;html=1;shape=ellipse;perimeter=ellipsePerimeter;" vertex="1" parent="1">
          <mxGeometry x="690" y="550" width="120" height="60" as="geometry" />
        </mxCell>
        <mxCell id="jPQeCpBVo-Wt4YYVI-Js-109" style="edgeStyle=none;rounded=0;orthogonalLoop=1;jettySize=auto;html=1;exitX=1;exitY=0.5;exitDx=0;exitDy=0;entryX=0;entryY=0.5;entryDx=0;entryDy=0;strokeColor=default;align=center;verticalAlign=middle;fontFamily=Helvetica;fontSize=11;fontColor=default;labelBackgroundColor=default;endArrow=none;endFill=0;" edge="1" parent="1" source="jPQeCpBVo-Wt4YYVI-Js-110" target="jPQeCpBVo-Wt4YYVI-Js-178">
          <mxGeometry relative="1" as="geometry" />
        </mxCell>
        <mxCell id="jPQeCpBVo-Wt4YYVI-Js-110" value="0:v&lt;br&gt;talk" style="rounded=0;whiteSpace=wrap;html=1;shape=ellipse;perimeter=ellipsePerimeter;" vertex="1" parent="1">
          <mxGeometry x="1640" y="790" width="120" height="60" as="geometry" />
        </mxCell>
        <mxCell id="jPQeCpBVo-Wt4YYVI-Js-111" style="edgeStyle=none;rounded=0;orthogonalLoop=1;jettySize=auto;html=1;exitX=1;exitY=0.5;exitDx=0;exitDy=0;entryX=0;entryY=0.5;entryDx=0;entryDy=0;strokeColor=default;align=center;verticalAlign=middle;fontFamily=Helvetica;fontSize=11;fontColor=default;labelBackgroundColor=default;endArrow=none;endFill=0;" edge="1" parent="1" source="jPQeCpBVo-Wt4YYVI-Js-112" target="jPQeCpBVo-Wt4YYVI-Js-118">
          <mxGeometry relative="1" as="geometry">
            <mxPoint x="340" y="680" as="targetPoint" />
          </mxGeometry>
        </mxCell>
        <mxCell id="jPQeCpBVo-Wt4YYVI-Js-112" value="overlay" style="rounded=0;whiteSpace=wrap;html=1;fontFamily=Helvetica;fontSize=11;fontColor=default;labelBackgroundColor=default;" vertex="1" parent="1">
          <mxGeometry x="180" y="650" width="120" height="60" as="geometry" />
        </mxCell>
        <mxCell id="jPQeCpBVo-Wt4YYVI-Js-113" style="edgeStyle=none;rounded=0;orthogonalLoop=1;jettySize=auto;html=1;exitX=1;exitY=0.5;exitDx=0;exitDy=0;entryX=0;entryY=0.5;entryDx=0;entryDy=0;strokeColor=default;align=center;verticalAlign=middle;fontFamily=Helvetica;fontSize=11;fontColor=default;labelBackgroundColor=default;endArrow=none;endFill=0;" edge="1" parent="1" source="jPQeCpBVo-Wt4YYVI-Js-114" target="jPQeCpBVo-Wt4YYVI-Js-112">
          <mxGeometry relative="1" as="geometry" />
        </mxCell>
        <mxCell id="jPQeCpBVo-Wt4YYVI-Js-114" value="&lt;div&gt;2:v&lt;/div&gt;transparent" style="rounded=0;whiteSpace=wrap;html=1;shape=ellipse;perimeter=ellipsePerimeter;" vertex="1" parent="1">
          <mxGeometry x="20" y="610" width="120" height="60" as="geometry" />
        </mxCell>
        <mxCell id="jPQeCpBVo-Wt4YYVI-Js-117" style="edgeStyle=none;rounded=0;orthogonalLoop=1;jettySize=auto;html=1;exitX=1;exitY=0.5;exitDx=0;exitDy=0;entryX=0;entryY=0.5;entryDx=0;entryDy=0;strokeColor=default;align=center;verticalAlign=middle;fontFamily=Helvetica;fontSize=11;fontColor=default;labelBackgroundColor=default;endArrow=none;endFill=0;" edge="1" parent="1" source="jPQeCpBVo-Wt4YYVI-Js-118" target="jPQeCpBVo-Wt4YYVI-Js-120">
          <mxGeometry relative="1" as="geometry">
            <mxPoint x="620" y="720" as="targetPoint" />
          </mxGeometry>
        </mxCell>
        <mxCell id="jPQeCpBVo-Wt4YYVI-Js-118" value="s2" style="ellipse;whiteSpace=wrap;html=1;aspect=fixed;fontFamily=Helvetica;fontSize=11;fontColor=default;labelBackgroundColor=default;" vertex="1" parent="1">
          <mxGeometry x="354" y="650" width="60" height="60" as="geometry" />
        </mxCell>
        <mxCell id="jPQeCpBVo-Wt4YYVI-Js-183" style="edgeStyle=none;rounded=0;orthogonalLoop=1;jettySize=auto;html=1;exitX=1;exitY=0.5;exitDx=0;exitDy=0;entryX=0;entryY=0.5;entryDx=0;entryDy=0;strokeColor=default;align=center;verticalAlign=middle;fontFamily=Helvetica;fontSize=11;fontColor=default;labelBackgroundColor=default;endArrow=none;endFill=0;" edge="1" parent="1" source="jPQeCpBVo-Wt4YYVI-Js-120" target="jPQeCpBVo-Wt4YYVI-Js-124">
          <mxGeometry relative="1" as="geometry" />
        </mxCell>
        <mxCell id="jPQeCpBVo-Wt4YYVI-Js-120" value="overlay" style="rounded=0;whiteSpace=wrap;html=1;fontFamily=Helvetica;fontSize=11;fontColor=default;labelBackgroundColor=default;" vertex="1" parent="1">
          <mxGeometry x="480" y="680" width="120" height="60" as="geometry" />
        </mxCell>
        <mxCell id="jPQeCpBVo-Wt4YYVI-Js-123" style="edgeStyle=none;rounded=0;orthogonalLoop=1;jettySize=auto;html=1;exitX=1;exitY=0.5;exitDx=0;exitDy=0;entryX=0;entryY=0.5;entryDx=0;entryDy=0;strokeColor=default;align=center;verticalAlign=middle;fontFamily=Helvetica;fontSize=11;fontColor=default;labelBackgroundColor=default;endArrow=none;endFill=0;" edge="1" parent="1" source="jPQeCpBVo-Wt4YYVI-Js-124" target="jPQeCpBVo-Wt4YYVI-Js-182">
          <mxGeometry relative="1" as="geometry" />
        </mxCell>
        <mxCell id="jPQeCpBVo-Wt4YYVI-Js-124" value="s3" style="ellipse;whiteSpace=wrap;html=1;aspect=fixed;fontFamily=Helvetica;fontSize=11;fontColor=default;labelBackgroundColor=default;" vertex="1" parent="1">
          <mxGeometry x="640" y="680" width="60" height="60" as="geometry" />
        </mxCell>
        <mxCell id="jPQeCpBVo-Wt4YYVI-Js-125" style="edgeStyle=none;rounded=0;orthogonalLoop=1;jettySize=auto;html=1;exitX=1;exitY=0.5;exitDx=0;exitDy=0;entryX=0;entryY=0.5;entryDx=0;entryDy=0;strokeColor=default;align=center;verticalAlign=middle;fontFamily=Helvetica;fontSize=11;fontColor=default;labelBackgroundColor=default;endArrow=none;endFill=0;" edge="1" parent="1" source="jPQeCpBVo-Wt4YYVI-Js-126" target="jPQeCpBVo-Wt4YYVI-Js-129">
          <mxGeometry relative="1" as="geometry" />
        </mxCell>
        <mxCell id="jPQeCpBVo-Wt4YYVI-Js-126" value="settb" style="rounded=0;whiteSpace=wrap;html=1;fontFamily=Helvetica;fontSize=11;fontColor=default;labelBackgroundColor=default;" vertex="1" parent="1">
          <mxGeometry x="820" y="850" width="120" height="60" as="geometry" />
        </mxCell>
        <mxCell id="jPQeCpBVo-Wt4YYVI-Js-127" style="edgeStyle=none;rounded=0;orthogonalLoop=1;jettySize=auto;html=1;exitX=1;exitY=0.5;exitDx=0;exitDy=0;entryX=0;entryY=0.5;entryDx=0;entryDy=0;strokeColor=default;align=center;verticalAlign=middle;fontFamily=Helvetica;fontSize=11;fontColor=default;labelBackgroundColor=default;endArrow=none;endFill=0;" edge="1" parent="1" source="jPQeCpBVo-Wt4YYVI-Js-129" target="jPQeCpBVo-Wt4YYVI-Js-131">
          <mxGeometry relative="1" as="geometry" />
        </mxCell>
        <mxCell id="jPQeCpBVo-Wt4YYVI-Js-128" style="edgeStyle=none;rounded=0;orthogonalLoop=1;jettySize=auto;html=1;exitX=1;exitY=0.5;exitDx=0;exitDy=0;entryX=0;entryY=0.5;entryDx=0;entryDy=0;strokeColor=default;align=center;verticalAlign=middle;fontFamily=Helvetica;fontSize=11;fontColor=default;labelBackgroundColor=default;endArrow=none;endFill=0;" edge="1" parent="1" source="jPQeCpBVo-Wt4YYVI-Js-129" target="jPQeCpBVo-Wt4YYVI-Js-133">
          <mxGeometry relative="1" as="geometry" />
        </mxCell>
        <mxCell id="jPQeCpBVo-Wt4YYVI-Js-129" value="split" style="rounded=0;whiteSpace=wrap;html=1;fontFamily=Helvetica;fontSize=11;fontColor=default;labelBackgroundColor=default;" vertex="1" parent="1">
          <mxGeometry x="980" y="850" width="120" height="60" as="geometry" />
        </mxCell>
        <mxCell id="jPQeCpBVo-Wt4YYVI-Js-130" style="edgeStyle=none;rounded=0;orthogonalLoop=1;jettySize=auto;html=1;exitX=1;exitY=0.5;exitDx=0;exitDy=0;entryX=0;entryY=0.5;entryDx=0;entryDy=0;strokeColor=default;align=center;verticalAlign=middle;fontFamily=Helvetica;fontSize=11;fontColor=default;labelBackgroundColor=default;endArrow=none;endFill=0;" edge="1" parent="1" source="jPQeCpBVo-Wt4YYVI-Js-131" target="jPQeCpBVo-Wt4YYVI-Js-135">
          <mxGeometry relative="1" as="geometry" />
        </mxCell>
        <mxCell id="jPQeCpBVo-Wt4YYVI-Js-131" value="bg1" style="ellipse;whiteSpace=wrap;html=1;aspect=fixed;fontFamily=Helvetica;fontSize=11;fontColor=default;labelBackgroundColor=default;" vertex="1" parent="1">
          <mxGeometry x="1140" y="790" width="60" height="60" as="geometry" />
        </mxCell>
        <mxCell id="jPQeCpBVo-Wt4YYVI-Js-133" value="bg2" style="ellipse;whiteSpace=wrap;html=1;aspect=fixed;fontFamily=Helvetica;fontSize=11;fontColor=default;labelBackgroundColor=default;" vertex="1" parent="1">
          <mxGeometry x="1290" y="880" width="60" height="60" as="geometry" />
        </mxCell>
        <mxCell id="jPQeCpBVo-Wt4YYVI-Js-134" style="edgeStyle=none;rounded=0;orthogonalLoop=1;jettySize=auto;html=1;exitX=1;exitY=0.5;exitDx=0;exitDy=0;entryX=0;entryY=0.5;entryDx=0;entryDy=0;strokeColor=default;align=center;verticalAlign=middle;fontFamily=Helvetica;fontSize=11;fontColor=default;labelBackgroundColor=default;endArrow=none;endFill=0;" edge="1" parent="1" source="jPQeCpBVo-Wt4YYVI-Js-135" target="jPQeCpBVo-Wt4YYVI-Js-140">
          <mxGeometry relative="1" as="geometry" />
        </mxCell>
        <mxCell id="jPQeCpBVo-Wt4YYVI-Js-135" value="trim" style="rounded=0;whiteSpace=wrap;html=1;fontFamily=Helvetica;fontSize=11;fontColor=default;labelBackgroundColor=default;" vertex="1" parent="1">
          <mxGeometry x="1260" y="790" width="120" height="60" as="geometry" />
        </mxCell>
        <mxCell id="jPQeCpBVo-Wt4YYVI-Js-138" style="edgeStyle=none;rounded=0;orthogonalLoop=1;jettySize=auto;html=1;exitX=1;exitY=0.5;exitDx=0;exitDy=0;entryX=0;entryY=0.5;entryDx=0;entryDy=0;strokeColor=default;align=center;verticalAlign=middle;fontFamily=Helvetica;fontSize=11;fontColor=default;labelBackgroundColor=default;endArrow=none;endFill=0;" edge="1" parent="1" source="jPQeCpBVo-Wt4YYVI-Js-133" target="jPQeCpBVo-Wt4YYVI-Js-145">
          <mxGeometry relative="1" as="geometry">
            <mxPoint x="1480" y="920" as="sourcePoint" />
          </mxGeometry>
        </mxCell>
        <mxCell id="jPQeCpBVo-Wt4YYVI-Js-139" style="edgeStyle=none;rounded=0;orthogonalLoop=1;jettySize=auto;html=1;exitX=1;exitY=0.5;exitDx=0;exitDy=0;entryX=0;entryY=0.5;entryDx=0;entryDy=0;strokeColor=default;align=center;verticalAlign=middle;fontFamily=Helvetica;fontSize=11;fontColor=default;labelBackgroundColor=default;endArrow=none;endFill=0;" edge="1" parent="1" source="jPQeCpBVo-Wt4YYVI-Js-140" target="jPQeCpBVo-Wt4YYVI-Js-169">
          <mxGeometry relative="1" as="geometry" />
        </mxCell>
        <mxCell id="jPQeCpBVo-Wt4YYVI-Js-140" value="bg3" style="ellipse;whiteSpace=wrap;html=1;aspect=fixed;fontFamily=Helvetica;fontSize=11;fontColor=default;labelBackgroundColor=default;" vertex="1" parent="1">
          <mxGeometry x="1420" y="770" width="60" height="60" as="geometry" />
        </mxCell>
        <mxCell id="jPQeCpBVo-Wt4YYVI-Js-144" style="edgeStyle=none;rounded=0;orthogonalLoop=1;jettySize=auto;html=1;exitX=1;exitY=0.5;exitDx=0;exitDy=0;entryX=0;entryY=0.5;entryDx=0;entryDy=0;strokeColor=default;align=center;verticalAlign=middle;fontFamily=Helvetica;fontSize=11;fontColor=default;labelBackgroundColor=default;endArrow=none;endFill=0;" edge="1" parent="1" source="jPQeCpBVo-Wt4YYVI-Js-197" target="jPQeCpBVo-Wt4YYVI-Js-147">
          <mxGeometry relative="1" as="geometry" />
        </mxCell>
        <mxCell id="jPQeCpBVo-Wt4YYVI-Js-198" style="edgeStyle=none;rounded=0;orthogonalLoop=1;jettySize=auto;html=1;exitX=1;exitY=0.5;exitDx=0;exitDy=0;entryX=0;entryY=0.5;entryDx=0;entryDy=0;strokeColor=default;align=center;verticalAlign=middle;fontFamily=Helvetica;fontSize=11;fontColor=default;labelBackgroundColor=default;endArrow=none;endFill=0;" edge="1" parent="1" source="jPQeCpBVo-Wt4YYVI-Js-145" target="jPQeCpBVo-Wt4YYVI-Js-197">
          <mxGeometry relative="1" as="geometry" />
        </mxCell>
        <mxCell id="jPQeCpBVo-Wt4YYVI-Js-145" value="overlay" style="rounded=0;whiteSpace=wrap;html=1;fontFamily=Helvetica;fontSize=11;fontColor=default;labelBackgroundColor=default;" vertex="1" parent="1">
          <mxGeometry x="1520" y="890" width="120" height="60" as="geometry" />
        </mxCell>
        <mxCell id="jPQeCpBVo-Wt4YYVI-Js-146" style="edgeStyle=none;rounded=0;orthogonalLoop=1;jettySize=auto;html=1;exitX=1;exitY=0.5;exitDx=0;exitDy=0;entryX=0;entryY=0.5;entryDx=0;entryDy=0;strokeColor=default;align=center;verticalAlign=middle;fontFamily=Helvetica;fontSize=11;fontColor=default;labelBackgroundColor=default;endArrow=none;endFill=0;" edge="1" parent="1" source="jPQeCpBVo-Wt4YYVI-Js-147" target="jPQeCpBVo-Wt4YYVI-Js-149">
          <mxGeometry relative="1" as="geometry" />
        </mxCell>
        <mxCell id="jPQeCpBVo-Wt4YYVI-Js-147" value="e1" style="ellipse;whiteSpace=wrap;html=1;aspect=fixed;fontFamily=Helvetica;fontSize=11;fontColor=default;labelBackgroundColor=default;" vertex="1" parent="1">
          <mxGeometry x="1820" y="890" width="60" height="60" as="geometry" />
        </mxCell>
        <mxCell id="jPQeCpBVo-Wt4YYVI-Js-148" style="edgeStyle=none;rounded=0;orthogonalLoop=1;jettySize=auto;html=1;exitX=1;exitY=0.5;exitDx=0;exitDy=0;entryX=0;entryY=0.5;entryDx=0;entryDy=0;strokeColor=default;align=center;verticalAlign=middle;fontFamily=Helvetica;fontSize=11;fontColor=default;labelBackgroundColor=default;endArrow=none;endFill=0;" edge="1" parent="1" source="jPQeCpBVo-Wt4YYVI-Js-149" target="jPQeCpBVo-Wt4YYVI-Js-153">
          <mxGeometry relative="1" as="geometry" />
        </mxCell>
        <mxCell id="jPQeCpBVo-Wt4YYVI-Js-149" value="overlay" style="rounded=0;whiteSpace=wrap;html=1;fontFamily=Helvetica;fontSize=11;fontColor=default;labelBackgroundColor=default;" vertex="1" parent="1">
          <mxGeometry x="1900" y="950" width="120" height="60" as="geometry" />
        </mxCell>
        <mxCell id="jPQeCpBVo-Wt4YYVI-Js-150" style="edgeStyle=none;rounded=0;orthogonalLoop=1;jettySize=auto;html=1;exitX=1;exitY=0.5;exitDx=0;exitDy=0;strokeColor=default;align=center;verticalAlign=middle;fontFamily=Helvetica;fontSize=11;fontColor=default;labelBackgroundColor=default;endArrow=none;endFill=0;entryX=0;entryY=0.5;entryDx=0;entryDy=0;" edge="1" parent="1" source="jPQeCpBVo-Wt4YYVI-Js-151" target="jPQeCpBVo-Wt4YYVI-Js-149">
          <mxGeometry relative="1" as="geometry">
            <mxPoint x="1900" y="920" as="targetPoint" />
          </mxGeometry>
        </mxCell>
        <mxCell id="jPQeCpBVo-Wt4YYVI-Js-151" value="7:v&lt;br&gt;copyright" style="rounded=0;whiteSpace=wrap;html=1;shape=ellipse;perimeter=ellipsePerimeter;" vertex="1" parent="1">
          <mxGeometry x="1714" y="1040" width="120" height="60" as="geometry" />
        </mxCell>
        <mxCell id="jPQeCpBVo-Wt4YYVI-Js-152" style="edgeStyle=none;rounded=0;orthogonalLoop=1;jettySize=auto;html=1;exitX=1;exitY=0.5;exitDx=0;exitDy=0;entryX=0;entryY=0.5;entryDx=0;entryDy=0;strokeColor=default;align=center;verticalAlign=middle;fontFamily=Helvetica;fontSize=11;fontColor=default;labelBackgroundColor=default;endArrow=none;endFill=0;" edge="1" parent="1" source="jPQeCpBVo-Wt4YYVI-Js-153" target="jPQeCpBVo-Wt4YYVI-Js-155">
          <mxGeometry relative="1" as="geometry" />
        </mxCell>
        <mxCell id="jPQeCpBVo-Wt4YYVI-Js-153" value="e2" style="ellipse;whiteSpace=wrap;html=1;aspect=fixed;fontFamily=Helvetica;fontSize=11;fontColor=default;labelBackgroundColor=default;" vertex="1" parent="1">
          <mxGeometry x="2100" y="950" width="60" height="60" as="geometry" />
        </mxCell>
        <mxCell id="jPQeCpBVo-Wt4YYVI-Js-154" style="edgeStyle=none;rounded=0;orthogonalLoop=1;jettySize=auto;html=1;exitX=1;exitY=0.5;exitDx=0;exitDy=0;entryX=0;entryY=0.5;entryDx=0;entryDy=0;strokeColor=default;align=center;verticalAlign=middle;fontFamily=Helvetica;fontSize=11;fontColor=default;labelBackgroundColor=default;endArrow=none;endFill=0;" edge="1" parent="1" source="jPQeCpBVo-Wt4YYVI-Js-155" target="jPQeCpBVo-Wt4YYVI-Js-157">
          <mxGeometry relative="1" as="geometry" />
        </mxCell>
        <mxCell id="jPQeCpBVo-Wt4YYVI-Js-155" value="xfade" style="rounded=0;whiteSpace=wrap;html=1;fontFamily=Helvetica;fontSize=11;fontColor=default;labelBackgroundColor=default;" vertex="1" parent="1">
          <mxGeometry x="2220" y="910" width="120" height="60" as="geometry" />
        </mxCell>
        <mxCell id="jPQeCpBVo-Wt4YYVI-Js-156" style="edgeStyle=none;rounded=0;orthogonalLoop=1;jettySize=auto;html=1;exitX=1;exitY=0.5;exitDx=0;exitDy=0;entryX=0;entryY=0.5;entryDx=0;entryDy=0;strokeColor=default;align=center;verticalAlign=middle;fontFamily=Helvetica;fontSize=11;fontColor=default;labelBackgroundColor=default;endArrow=none;endFill=0;" edge="1" parent="1" source="jPQeCpBVo-Wt4YYVI-Js-157" target="jPQeCpBVo-Wt4YYVI-Js-159">
          <mxGeometry relative="1" as="geometry" />
        </mxCell>
        <mxCell id="jPQeCpBVo-Wt4YYVI-Js-157" value="fade" style="rounded=0;whiteSpace=wrap;html=1;fontFamily=Helvetica;fontSize=11;fontColor=default;labelBackgroundColor=default;" vertex="1" parent="1">
          <mxGeometry x="2421" y="910" width="120" height="60" as="geometry" />
        </mxCell>
        <mxCell id="jPQeCpBVo-Wt4YYVI-Js-158" style="edgeStyle=none;rounded=0;orthogonalLoop=1;jettySize=auto;html=1;exitX=1;exitY=0.5;exitDx=0;exitDy=0;entryX=0;entryY=0.5;entryDx=0;entryDy=0;strokeColor=default;align=center;verticalAlign=middle;fontFamily=Helvetica;fontSize=11;fontColor=default;labelBackgroundColor=default;endArrow=none;endFill=0;" edge="1" parent="1" source="jPQeCpBVo-Wt4YYVI-Js-159" target="jPQeCpBVo-Wt4YYVI-Js-173">
          <mxGeometry relative="1" as="geometry" />
        </mxCell>
        <mxCell id="jPQeCpBVo-Wt4YYVI-Js-159" value="m2" style="ellipse;whiteSpace=wrap;html=1;aspect=fixed;fontFamily=Helvetica;fontSize=11;fontColor=default;labelBackgroundColor=default;" vertex="1" parent="1">
          <mxGeometry x="2580" y="910" width="60" height="60" as="geometry" />
        </mxCell>
        <mxCell id="jPQeCpBVo-Wt4YYVI-Js-164" style="edgeStyle=none;rounded=0;orthogonalLoop=1;jettySize=auto;html=1;exitX=1;exitY=0.5;exitDx=0;exitDy=0;entryX=0;entryY=0.5;entryDx=0;entryDy=0;strokeColor=default;align=center;verticalAlign=middle;fontFamily=Helvetica;fontSize=11;fontColor=default;labelBackgroundColor=default;endArrow=none;endFill=0;" edge="1" parent="1" source="jPQeCpBVo-Wt4YYVI-Js-165" target="jPQeCpBVo-Wt4YYVI-Js-167">
          <mxGeometry relative="1" as="geometry" />
        </mxCell>
        <mxCell id="jPQeCpBVo-Wt4YYVI-Js-165" value="xfade" style="rounded=0;whiteSpace=wrap;html=1;fontFamily=Helvetica;fontSize=11;fontColor=default;labelBackgroundColor=default;" vertex="1" parent="1">
          <mxGeometry x="980" y="610" width="120" height="60" as="geometry" />
        </mxCell>
        <mxCell id="jPQeCpBVo-Wt4YYVI-Js-166" style="edgeStyle=none;rounded=0;orthogonalLoop=1;jettySize=auto;html=1;exitX=1;exitY=0.5;exitDx=0;exitDy=0;entryX=0;entryY=0.5;entryDx=0;entryDy=0;strokeColor=default;align=center;verticalAlign=middle;fontFamily=Helvetica;fontSize=11;fontColor=default;labelBackgroundColor=default;endArrow=none;endFill=0;" edge="1" parent="1" source="jPQeCpBVo-Wt4YYVI-Js-167" target="jPQeCpBVo-Wt4YYVI-Js-169">
          <mxGeometry relative="1" as="geometry" />
        </mxCell>
        <mxCell id="jPQeCpBVo-Wt4YYVI-Js-167" value="s5" style="ellipse;whiteSpace=wrap;html=1;aspect=fixed;fontFamily=Helvetica;fontSize=11;fontColor=default;labelBackgroundColor=default;" vertex="1" parent="1">
          <mxGeometry x="1181" y="610" width="60" height="60" as="geometry" />
        </mxCell>
        <mxCell id="jPQeCpBVo-Wt4YYVI-Js-168" style="edgeStyle=none;rounded=0;orthogonalLoop=1;jettySize=auto;html=1;exitX=1;exitY=0.5;exitDx=0;exitDy=0;entryX=0;entryY=0.5;entryDx=0;entryDy=0;strokeColor=default;align=center;verticalAlign=middle;fontFamily=Helvetica;fontSize=11;fontColor=default;labelBackgroundColor=default;endArrow=none;endFill=0;" edge="1" parent="1" source="jPQeCpBVo-Wt4YYVI-Js-169" target="jPQeCpBVo-Wt4YYVI-Js-171">
          <mxGeometry relative="1" as="geometry" />
        </mxCell>
        <mxCell id="jPQeCpBVo-Wt4YYVI-Js-169" value="overlay" style="rounded=0;whiteSpace=wrap;html=1;fontFamily=Helvetica;fontSize=11;fontColor=default;labelBackgroundColor=default;" vertex="1" parent="1">
          <mxGeometry x="1500" y="690" width="120" height="60" as="geometry" />
        </mxCell>
        <mxCell id="jPQeCpBVo-Wt4YYVI-Js-170" style="edgeStyle=none;rounded=0;orthogonalLoop=1;jettySize=auto;html=1;exitX=1;exitY=0.5;exitDx=0;exitDy=0;entryX=0;entryY=0.5;entryDx=0;entryDy=0;strokeColor=default;align=center;verticalAlign=middle;fontFamily=Helvetica;fontSize=11;fontColor=default;labelBackgroundColor=default;endArrow=none;endFill=0;" edge="1" parent="1" source="jPQeCpBVo-Wt4YYVI-Js-171" target="jPQeCpBVo-Wt4YYVI-Js-173">
          <mxGeometry relative="1" as="geometry" />
        </mxCell>
        <mxCell id="jPQeCpBVo-Wt4YYVI-Js-171" value="s6" style="ellipse;whiteSpace=wrap;html=1;aspect=fixed;fontFamily=Helvetica;fontSize=11;fontColor=default;labelBackgroundColor=default;" vertex="1" parent="1">
          <mxGeometry x="1700" y="690" width="60" height="60" as="geometry" />
        </mxCell>
        <mxCell id="jPQeCpBVo-Wt4YYVI-Js-172" style="edgeStyle=none;rounded=0;orthogonalLoop=1;jettySize=auto;html=1;exitX=1;exitY=0.5;exitDx=0;exitDy=0;entryX=0;entryY=0.5;entryDx=0;entryDy=0;strokeColor=default;align=center;verticalAlign=middle;fontFamily=Helvetica;fontSize=11;fontColor=default;labelBackgroundColor=default;endArrow=none;endFill=0;" edge="1" parent="1" source="jPQeCpBVo-Wt4YYVI-Js-173" target="jPQeCpBVo-Wt4YYVI-Js-175">
          <mxGeometry relative="1" as="geometry" />
        </mxCell>
        <mxCell id="jPQeCpBVo-Wt4YYVI-Js-173" value="xfade" style="rounded=0;whiteSpace=wrap;html=1;fontFamily=Helvetica;fontSize=11;fontColor=default;labelBackgroundColor=default;" vertex="1" parent="1">
          <mxGeometry x="2700" y="810" width="120" height="60" as="geometry" />
        </mxCell>
        <mxCell id="jPQeCpBVo-Wt4YYVI-Js-174" style="edgeStyle=none;rounded=0;orthogonalLoop=1;jettySize=auto;html=1;exitX=1;exitY=0.5;exitDx=0;exitDy=0;entryX=0;entryY=0.5;entryDx=0;entryDy=0;strokeColor=default;align=center;verticalAlign=middle;fontFamily=Helvetica;fontSize=11;fontColor=default;labelBackgroundColor=default;endArrow=none;endFill=0;" edge="1" parent="1" source="jPQeCpBVo-Wt4YYVI-Js-175" target="jPQeCpBVo-Wt4YYVI-Js-176">
          <mxGeometry relative="1" as="geometry" />
        </mxCell>
        <mxCell id="jPQeCpBVo-Wt4YYVI-Js-175" value="fade" style="rounded=0;whiteSpace=wrap;html=1;fontFamily=Helvetica;fontSize=11;fontColor=default;labelBackgroundColor=default;" vertex="1" parent="1">
          <mxGeometry x="2861" y="810" width="120" height="60" as="geometry" />
        </mxCell>
        <mxCell id="jPQeCpBVo-Wt4YYVI-Js-176" value="p1" style="ellipse;whiteSpace=wrap;html=1;aspect=fixed;fontFamily=Helvetica;fontSize=11;fontColor=default;labelBackgroundColor=default;" vertex="1" parent="1">
          <mxGeometry x="3060" y="810" width="60" height="60" as="geometry" />
        </mxCell>
        <mxCell id="jPQeCpBVo-Wt4YYVI-Js-177" style="edgeStyle=none;rounded=0;orthogonalLoop=1;jettySize=auto;html=1;exitX=1;exitY=0.5;exitDx=0;exitDy=0;entryX=0;entryY=0.5;entryDx=0;entryDy=0;strokeColor=default;align=center;verticalAlign=middle;fontFamily=Helvetica;fontSize=11;fontColor=default;labelBackgroundColor=default;endArrow=none;endFill=0;" edge="1" parent="1" source="jPQeCpBVo-Wt4YYVI-Js-178" target="jPQeCpBVo-Wt4YYVI-Js-180">
          <mxGeometry relative="1" as="geometry" />
        </mxCell>
        <mxCell id="jPQeCpBVo-Wt4YYVI-Js-178" value="settb" style="rounded=0;whiteSpace=wrap;html=1;fontFamily=Helvetica;fontSize=11;fontColor=default;labelBackgroundColor=default;" vertex="1" parent="1">
          <mxGeometry x="1887.5" y="800" width="120" height="60" as="geometry" />
        </mxCell>
        <mxCell id="jPQeCpBVo-Wt4YYVI-Js-179" style="edgeStyle=none;rounded=0;orthogonalLoop=1;jettySize=auto;html=1;exitX=1;exitY=0.5;exitDx=0;exitDy=0;entryX=0;entryY=0.5;entryDx=0;entryDy=0;strokeColor=default;align=center;verticalAlign=middle;fontFamily=Helvetica;fontSize=11;fontColor=default;labelBackgroundColor=default;endArrow=none;endFill=0;" edge="1" parent="1" source="jPQeCpBVo-Wt4YYVI-Js-180" target="jPQeCpBVo-Wt4YYVI-Js-155">
          <mxGeometry relative="1" as="geometry" />
        </mxCell>
        <mxCell id="jPQeCpBVo-Wt4YYVI-Js-180" value="m1" style="ellipse;whiteSpace=wrap;html=1;aspect=fixed;fontFamily=Helvetica;fontSize=11;fontColor=default;labelBackgroundColor=default;" vertex="1" parent="1">
          <mxGeometry x="2080" y="840" width="60" height="60" as="geometry" />
        </mxCell>
        <mxCell id="jPQeCpBVo-Wt4YYVI-Js-190" style="edgeStyle=none;rounded=0;orthogonalLoop=1;jettySize=auto;html=1;exitX=1;exitY=0.5;exitDx=0;exitDy=0;entryX=0;entryY=0.5;entryDx=0;entryDy=0;strokeColor=default;align=center;verticalAlign=middle;fontFamily=Helvetica;fontSize=11;fontColor=default;labelBackgroundColor=default;endArrow=none;endFill=0;" edge="1" parent="1" source="jPQeCpBVo-Wt4YYVI-Js-181" target="jPQeCpBVo-Wt4YYVI-Js-189">
          <mxGeometry relative="1" as="geometry" />
        </mxCell>
        <mxCell id="jPQeCpBVo-Wt4YYVI-Js-181" value="5:v&lt;br&gt;logo" style="rounded=0;whiteSpace=wrap;html=1;shape=ellipse;perimeter=ellipsePerimeter;" vertex="1" parent="1">
          <mxGeometry x="200" y="920" width="120" height="60" as="geometry" />
        </mxCell>
        <mxCell id="jPQeCpBVo-Wt4YYVI-Js-186" value="" style="edgeStyle=none;rounded=0;orthogonalLoop=1;jettySize=auto;html=1;strokeColor=default;align=center;verticalAlign=middle;fontFamily=Helvetica;fontSize=11;fontColor=default;labelBackgroundColor=default;endArrow=none;endFill=0;entryX=0;entryY=0.5;entryDx=0;entryDy=0;" edge="1" parent="1" source="jPQeCpBVo-Wt4YYVI-Js-182" target="jPQeCpBVo-Wt4YYVI-Js-187">
          <mxGeometry relative="1" as="geometry">
            <mxPoint x="940" y="750" as="targetPoint" />
          </mxGeometry>
        </mxCell>
        <mxCell id="jPQeCpBVo-Wt4YYVI-Js-182" value="overlay" style="rounded=0;whiteSpace=wrap;html=1;fontFamily=Helvetica;fontSize=11;fontColor=default;labelBackgroundColor=default;" vertex="1" parent="1">
          <mxGeometry x="780" y="720" width="120" height="60" as="geometry" />
        </mxCell>
        <mxCell id="jPQeCpBVo-Wt4YYVI-Js-188" style="edgeStyle=none;rounded=0;orthogonalLoop=1;jettySize=auto;html=1;exitX=1;exitY=0.5;exitDx=0;exitDy=0;entryX=0;entryY=0.5;entryDx=0;entryDy=0;strokeColor=default;align=center;verticalAlign=middle;fontFamily=Helvetica;fontSize=11;fontColor=default;labelBackgroundColor=default;endArrow=none;endFill=0;" edge="1" parent="1" source="jPQeCpBVo-Wt4YYVI-Js-187" target="jPQeCpBVo-Wt4YYVI-Js-165">
          <mxGeometry relative="1" as="geometry" />
        </mxCell>
        <mxCell id="jPQeCpBVo-Wt4YYVI-Js-187" value="s4" style="ellipse;whiteSpace=wrap;html=1;aspect=fixed;fontFamily=Helvetica;fontSize=11;fontColor=default;labelBackgroundColor=default;" vertex="1" parent="1">
          <mxGeometry x="900" y="640" width="60" height="60" as="geometry" />
        </mxCell>
        <mxCell id="jPQeCpBVo-Wt4YYVI-Js-193" style="edgeStyle=none;rounded=0;orthogonalLoop=1;jettySize=auto;html=1;exitX=1;exitY=0.5;exitDx=0;exitDy=0;entryX=0;entryY=0.5;entryDx=0;entryDy=0;strokeColor=default;align=center;verticalAlign=middle;fontFamily=Helvetica;fontSize=11;fontColor=default;labelBackgroundColor=default;endArrow=none;endFill=0;" edge="1" parent="1" source="jPQeCpBVo-Wt4YYVI-Js-189" target="jPQeCpBVo-Wt4YYVI-Js-191">
          <mxGeometry relative="1" as="geometry" />
        </mxCell>
        <mxCell id="jPQeCpBVo-Wt4YYVI-Js-194" style="edgeStyle=none;rounded=0;orthogonalLoop=1;jettySize=auto;html=1;exitX=1;exitY=0.5;exitDx=0;exitDy=0;entryX=0;entryY=0.5;entryDx=0;entryDy=0;strokeColor=default;align=center;verticalAlign=middle;fontFamily=Helvetica;fontSize=11;fontColor=default;labelBackgroundColor=default;endArrow=none;endFill=0;" edge="1" parent="1" source="jPQeCpBVo-Wt4YYVI-Js-189" target="jPQeCpBVo-Wt4YYVI-Js-192">
          <mxGeometry relative="1" as="geometry" />
        </mxCell>
        <mxCell id="jPQeCpBVo-Wt4YYVI-Js-189" value="split" style="rounded=0;whiteSpace=wrap;html=1;fontFamily=Helvetica;fontSize=11;fontColor=default;labelBackgroundColor=default;" vertex="1" parent="1">
          <mxGeometry x="400" y="920" width="120" height="60" as="geometry" />
        </mxCell>
        <mxCell id="jPQeCpBVo-Wt4YYVI-Js-195" style="edgeStyle=none;rounded=0;orthogonalLoop=1;jettySize=auto;html=1;exitX=1;exitY=0.5;exitDx=0;exitDy=0;entryX=0;entryY=0.5;entryDx=0;entryDy=0;strokeColor=default;align=center;verticalAlign=middle;fontFamily=Helvetica;fontSize=11;fontColor=default;labelBackgroundColor=default;endArrow=none;endFill=0;" edge="1" parent="1" source="jPQeCpBVo-Wt4YYVI-Js-191" target="jPQeCpBVo-Wt4YYVI-Js-182">
          <mxGeometry relative="1" as="geometry" />
        </mxCell>
        <mxCell id="jPQeCpBVo-Wt4YYVI-Js-191" value="l1" style="ellipse;whiteSpace=wrap;html=1;aspect=fixed;fontFamily=Helvetica;fontSize=11;fontColor=default;labelBackgroundColor=default;" vertex="1" parent="1">
          <mxGeometry x="560" y="820" width="60" height="60" as="geometry" />
        </mxCell>
        <mxCell id="jPQeCpBVo-Wt4YYVI-Js-196" style="edgeStyle=none;rounded=0;orthogonalLoop=1;jettySize=auto;html=1;exitX=1;exitY=0.5;exitDx=0;exitDy=0;strokeColor=default;align=center;verticalAlign=middle;fontFamily=Helvetica;fontSize=11;fontColor=default;labelBackgroundColor=default;endArrow=none;endFill=0;entryX=0;entryY=0.5;entryDx=0;entryDy=0;" edge="1" parent="1" source="jPQeCpBVo-Wt4YYVI-Js-192" target="jPQeCpBVo-Wt4YYVI-Js-145">
          <mxGeometry relative="1" as="geometry">
            <mxPoint x="1350" y="1030" as="targetPoint" />
          </mxGeometry>
        </mxCell>
        <mxCell id="jPQeCpBVo-Wt4YYVI-Js-192" value="l2" style="ellipse;whiteSpace=wrap;html=1;aspect=fixed;fontFamily=Helvetica;fontSize=11;fontColor=default;labelBackgroundColor=default;" vertex="1" parent="1">
          <mxGeometry x="1420" y="960" width="60" height="60" as="geometry" />
        </mxCell>
        <mxCell id="jPQeCpBVo-Wt4YYVI-Js-197" value="trim" style="rounded=0;whiteSpace=wrap;html=1;fontFamily=Helvetica;fontSize=11;fontColor=default;labelBackgroundColor=default;" vertex="1" parent="1">
          <mxGeometry x="1670" y="890" width="120" height="60" as="geometry" />
        </mxCell>
      </root>
    </mxGraphModel>
  </diagram>
</mxfile>
